<?xml version="1.0" encoding="utf-8"?>
<!-- Generator: Adobe Illustrator 26.0.1, SVG Export Plug-In . SVG Version: 6.00 Build 0)  -->
<svg version="1.1" id="Livello_1" xmlns="http://www.w3.org/2000/svg" xmlns:xlink="http://www.w3.org/1999/xlink" x="0px" y="0px"
	 viewBox="0 0 32 32" style="enable-background:new 0 0 32 32;" xml:space="preserve">
<style type="text/css">
	.st0{fill:#4372A1;}
	.st1{display:none;}
	.st2{display:inline;fill:#4372A1;stroke:#4372A1;stroke-miterlimit:10;}
	.st3{display:inline;fill:#FFFFFF;stroke:#B2B2B2;stroke-width:0.75;stroke-miterlimit:10;}
	.st4{display:inline;fill:none;stroke:#4372A1;stroke-width:0.75;stroke-miterlimit:10;}
	.st5{fill:#00983A;stroke:#00983A;stroke-width:2;stroke-miterlimit:10;}
</style>
<g>
	<g>
		<path class="st0" d="M12.42,26.62H3.04V2.25h9.38V26.62z M10.54,24.75v-1.88H7.73V21h2.81v-1.88H7.73v-1.88h2.81v-1.88H7.73V13.5
			h2.81v-1.88H7.73V9.75h2.81V7.88H7.73V6h2.81V4.12H4.92v20.62H10.54z M11.1,30.38l18.19-18.19v18.19H11.1z M27.42,28.5v-1.88H24.6
			v-1.88h2.81v-1.88H24.6V21h2.81v-4.31L15.61,28.5H27.42z"/>
	</g>
</g>
<g class="st1">
	<line class="st2" x1="15.07" y1="2.58" x2="29.21" y2="2.63"/>
	<line class="st3" x1="19.83" y1="3.33" x2="19.89" y2="11.22"/>
	<line class="st3" x1="24.39" y1="3.33" x2="24.39" y2="11.17"/>
	<line class="st3" x1="15.44" y1="8.83" x2="28.83" y2="8.83"/>
	<line class="st3" x1="15.44" y1="6.06" x2="28.44" y2="6.06"/>
	<rect x="15.44" y="3.33" class="st4" width="13.39" height="8.22"/>
</g>
<g>
	<path class="st5" d="M12.96,6.89l0.94,0.37c0.08-0.18,0.23-0.47,0.47-0.85s0.56-0.79,0.96-1.22c0.35-0.37,0.72-0.69,1.12-0.96
		c0.4-0.28,0.82-0.52,1.26-0.71c0.44-0.19,0.89-0.33,1.37-0.43s0.97-0.15,1.48-0.15c0.51,0,1,0.05,1.48,0.15
		c0.48,0.1,0.93,0.24,1.37,0.43c0.44,0.19,0.86,0.42,1.26,0.71c0.4,0.28,0.77,0.6,1.12,0.96c0.52,0.55,0.9,1.06,1.13,1.52
		c0.24,0.46,0.36,0.71,0.37,0.73l-0.96,0.39c-0.42-0.82-0.86-1.47-1.33-1.95c-0.61-0.63-1.28-1.1-2.03-1.42
		c-0.75-0.32-1.55-0.48-2.42-0.48c-0.91,0-1.7,0.16-2.38,0.47c-0.67,0.3-1.23,0.66-1.69,1.07c-0.46,0.41-0.82,0.82-1.08,1.22
		c-0.26,0.41-0.44,0.71-0.53,0.91l0.91,0.36L13.8,8.85L12.96,6.89z M27.06,13.23c-0.09,0.18-0.25,0.47-0.48,0.85
		c-0.23,0.38-0.55,0.79-0.95,1.22c-0.35,0.37-0.72,0.69-1.12,0.96c-0.4,0.28-0.82,0.52-1.26,0.71c-0.44,0.19-0.89,0.33-1.37,0.43
		c-0.48,0.1-0.97,0.15-1.48,0.15c-0.51,0-1-0.05-1.48-0.15c-0.48-0.1-0.93-0.24-1.37-0.43c-0.44-0.19-0.86-0.42-1.26-0.71
		c-0.4-0.27-0.77-0.59-1.12-0.96c-0.52-0.55-0.9-1.06-1.13-1.52c-0.24-0.46-0.36-0.71-0.37-0.73l0.96-0.39
		c0.42,0.82,0.86,1.47,1.33,1.95c0.61,0.63,1.28,1.1,2.03,1.42c0.75,0.32,1.55,0.48,2.42,0.48c0.91,0,1.7-0.16,2.37-0.47
		c0.67-0.3,1.24-0.66,1.7-1.07s0.83-0.82,1.09-1.22c0.26-0.41,0.44-0.71,0.53-0.91l-0.92-0.36l1.98-0.84L28,13.6L27.06,13.23z"/>
</g>
</svg>
