<?xml version="1.0" encoding="utf-8"?>
<!-- Generator: Adobe Illustrator 26.0.1, SVG Export Plug-In . SVG Version: 6.00 Build 0)  -->
<svg version="1.1" id="Livello_1" xmlns="http://www.w3.org/2000/svg" xmlns:xlink="http://www.w3.org/1999/xlink" x="0px" y="0px"
	 viewBox="0 0 32 32" style="enable-background:new 0 0 32 32;" xml:space="preserve">
<style type="text/css">
	.st0{fill:#999999;}
	.st1{fill:#34669A;}
	.st2{fill:#4372A1;}
</style>
<g>
	<polygon class="st0" points="2.99,23.36 13.68,23.36 13.68,26.65 2.99,26.65 2.99,28.3 15.33,28.3 15.33,21.72 2.99,21.72 	"/>
	<rect x="2.99" y="24.18" class="st1" width="9.05" height="1.65"/>
	<polygon class="st0" points="2.99,15.13 13.68,15.13 13.68,18.42 2.99,18.42 2.99,20.07 15.33,20.07 15.33,13.49 2.99,13.49 	"/>
	<rect x="2.99" y="15.96" class="st1" width="9.05" height="1.65"/>
	<path class="st2" d="M20.27,2.79l-9.05,4.52v4.54h1.65V9.13l6.58,3.29v8.45l-2.47-1.23v1.84l3.29,1.65l9.05-4.53V7.3L20.27,2.79z
		 M13.88,7.8l6.39-3.19l6.39,3.19l-6.39,3.19L13.88,7.8z M27.67,17.58l-6.58,3.29v-8.45l6.58-3.29V17.58z"/>
</g>
</svg>
