<?xml version="1.0" encoding="utf-8"?>
<!-- Generator: Adobe Illustrator 26.0.1, SVG Export Plug-In . SVG Version: 6.00 Build 0)  -->
<svg version="1.1" id="Livello_1" xmlns="http://www.w3.org/2000/svg" xmlns:xlink="http://www.w3.org/1999/xlink" x="0px" y="0px"
	 viewBox="0 0 32 32" style="enable-background:new 0 0 32 32;" xml:space="preserve">
<style type="text/css">
	.st0{fill:#00983A;stroke:#00983A;stroke-width:2;stroke-miterlimit:10;}
</style>
<g>
	<path class="st0" d="M3.96,10.45l1.55,0.61c0.12-0.3,0.38-0.77,0.77-1.4c0.39-0.63,0.92-1.3,1.58-2.02
		C8.43,7.03,9.04,6.51,9.7,6.06c0.66-0.46,1.35-0.85,2.07-1.16c0.72-0.31,1.47-0.55,2.26-0.71c0.78-0.16,1.59-0.24,2.43-0.24
		c0.84,0,1.65,0.08,2.43,0.24c0.78,0.16,1.54,0.4,2.26,0.71c0.72,0.31,1.41,0.7,2.07,1.16c0.66,0.46,1.27,0.99,1.84,1.58
		c0.85,0.91,1.48,1.75,1.87,2.51c0.39,0.77,0.6,1.17,0.61,1.2L25.97,12c-0.69-1.35-1.43-2.42-2.19-3.21c-1-1.03-2.11-1.81-3.34-2.34
		c-1.23-0.53-2.56-0.79-3.98-0.79c-1.5,0-2.81,0.26-3.93,0.77c-1.1,0.5-2.04,1.09-2.79,1.76c-0.76,0.68-1.35,1.34-1.78,2
		c-0.43,0.68-0.72,1.18-0.88,1.5l1.5,0.59l-3.23,1.39L3.96,10.45z M27.2,20.89c-0.14,0.3-0.41,0.77-0.79,1.4
		c-0.38,0.63-0.9,1.3-1.56,2.02c-0.57,0.61-1.18,1.13-1.84,1.58c-0.66,0.46-1.35,0.85-2.07,1.16c-0.72,0.31-1.47,0.55-2.26,0.71
		C17.89,27.92,17.08,28,16.25,28c-0.84,0-1.65-0.08-2.43-0.24c-0.78-0.16-1.54-0.4-2.26-0.71c-0.72-0.31-1.41-0.7-2.07-1.16
		c-0.66-0.45-1.27-0.97-1.84-1.58c-0.86-0.91-1.48-1.75-1.87-2.51s-0.6-1.17-0.61-1.2l1.58-0.64c0.69,1.35,1.42,2.42,2.19,3.21
		c1,1.03,2.11,1.81,3.34,2.34s2.56,0.79,3.98,0.79c1.5,0,2.8-0.26,3.9-0.77c1.1-0.5,2.04-1.09,2.81-1.76c0.77-0.68,1.36-1.34,1.79-2
		c0.43-0.68,0.72-1.18,0.88-1.5l-1.52-0.59l3.26-1.39l1.39,3.23L27.2,20.89z"/>
</g>
</svg>
