<?xml version="1.0" encoding="utf-8"?>
<!-- Generator: Adobe Illustrator 26.0.1, SVG Export Plug-In . SVG Version: 6.00 Build 0)  -->
<svg version="1.1" id="Livello_1" xmlns="http://www.w3.org/2000/svg" xmlns:xlink="http://www.w3.org/1999/xlink" x="0px" y="0px"
	 viewBox="0 0 32 32" style="enable-background:new 0 0 32 32;" xml:space="preserve">
<style type="text/css">
	.st0{fill:#3F73A1;}
	.st1{fill:#B3B2B2;}
</style>
<g>
	<path class="st0" d="M9.92,26.49c-0.18,0.15-0.47,0.23-0.86,0.23c-0.3,0-0.57-0.03-0.84-0.11c-0.26-0.08-0.58-0.22-0.94-0.43
		l-0.67,1.25c0.33,0.19,0.72,0.34,1.15,0.44c0.43,0.1,0.86,0.16,1.24,0.16c0.91,0,1.61-0.21,2.09-0.63
		c0.48-0.42,0.72-0.97,0.72-1.65c0-0.64-0.17-1.13-0.52-1.48c-0.34-0.35-0.91-0.62-1.69-0.79c-0.43-0.09-0.73-0.21-0.89-0.32
		c-0.16-0.11-0.25-0.29-0.25-0.5c0-0.24,0.09-0.42,0.27-0.55c0.18-0.13,0.43-0.19,0.75-0.19c0.21,0,0.43,0.03,0.68,0.1
		c0.24,0.07,0.5,0.18,0.79,0.33l0.6-1.28c-0.31-0.15-0.63-0.27-0.97-0.35c-0.34-0.08-0.68-0.13-1.04-0.13
		c-0.84,0-1.51,0.22-1.98,0.64c-0.47,0.42-0.71,0.95-0.71,1.55s0.18,1.07,0.55,1.41s0.95,0.59,1.74,0.79
		c0.4,0.09,0.66,0.21,0.81,0.33c0.15,0.14,0.22,0.32,0.22,0.57C10.19,26.13,10.1,26.34,9.92,26.49z"/>
	<path class="st0" d="M13.2,27.9h1.76l0.48-1.49h2.61l0.49,1.49h1.77l-2.55-7.18h-1.92L13.2,27.9z M16.66,22.38
		c0.02-0.07,0.03-0.16,0.06-0.26h0.05c0.01,0.11,0.03,0.21,0.05,0.27c0.02,0.07,0.05,0.16,0.07,0.25l0.79,2.5h-1.88l0.8-2.52
		C16.62,22.53,16.64,22.45,16.66,22.38z"/>
	<polygon class="st0" points="26.5,26.59 23.83,26.59 23.83,20.72 22.21,20.72 22.21,27.9 26.5,27.9 	"/>
	<path class="st0" d="M30.54,6.17h-0.03V4.23h0.05L30.54,2.4L1.35,2.52v1.82h1.33v1.94H1.35V8.1h1.33v22.24h1.4h0.43h24.65v-1.82
		H4.52V8.09l4.97-0.02C9.78,7,10.3,6.02,11,5.2V4.3h0.9c1.3-1.11,2.99-1.78,4.85-1.78c2.52,0,4.76,1.24,6.12,3.15v-1.4l2.17-0.01
		v1.94L23.22,6.2c0.33,0.56,0.6,1.17,0.78,1.82l6.55-0.03V6.17z M5.97,6.26H4.51V4.32h1.46V6.26z M9.16,6.25H7.8V4.31h1.37V6.25z
		 M28.69,6.18l-1.82,0.01V4.25l1.82-0.01V6.18z"/>
	<path class="st1" d="M23.25,11.18c0-3.52-2.86-6.39-6.39-6.39s-6.39,2.86-6.39,6.39s2.86,6.39,6.39,6.39S23.25,14.71,23.25,11.18z
		 M16.86,15.74c-2.52,0-4.56-2.04-4.56-4.56c0-2.19,1.54-4.01,3.6-4.46v4.91h0.11l-0.08,0.08l3.34,3.33
		C18.58,15.48,17.75,15.74,16.86,15.74z M17.73,10.91V6.7c2.1,0.41,3.69,2.26,3.69,4.48c0,0.97-0.31,1.86-0.82,2.6L17.73,10.91z"/>
</g>
</svg>
