<?xml version="1.0" encoding="utf-8"?>
<!-- Generator: Adobe Illustrator 26.0.1, SVG Export Plug-In . SVG Version: 6.00 Build 0)  -->
<svg version="1.1" id="Livello_1" xmlns="http://www.w3.org/2000/svg" xmlns:xlink="http://www.w3.org/1999/xlink" x="0px" y="0px"
	 viewBox="0 0 32 32" style="enable-background:new 0 0 32 32;" xml:space="preserve">
<style type="text/css">
	.st0{fill:none;stroke:#3F73A1;stroke-width:2;stroke-miterlimit:10;}
	.st1{fill:#3F73A1;stroke:#3F73A1;stroke-miterlimit:10;}
	.st2{fill:#616160;stroke:#3F73A1;stroke-width:2;stroke-miterlimit:10;}
	.st3{fill:none;stroke:#B3B2B2;stroke-miterlimit:10;}
</style>
<line class="st0" x1="15.78" y1="30.24" x2="15.78" y2="2.35"/>
<path class="st1" d="M24.7,1.24c0.81,0,1.58,0.16,2.28,0.45c0.73,0.3,1.39,0.75,1.94,1.29c0.55,0.55,0.99,1.21,1.29,1.94
	c0.29,0.7,0.45,1.47,0.45,2.28c0,0.81-0.16,1.58-0.45,2.28c-0.3,0.73-0.75,1.39-1.29,1.94c-0.55,0.55-1.21,0.99-1.94,1.29
	c-0.7,0.29-1.47,0.45-2.28,0.45c-0.81,0-1.58-0.16-2.28-0.45c-0.73-0.3-1.39-0.75-1.94-1.29c-0.55-0.55-0.99-1.21-1.29-1.94
	c-0.29-0.7-0.45-1.47-0.45-2.28s0.16-1.58,0.45-2.28c0.3-0.73,0.75-1.39,1.29-1.94c0.55-0.55,1.21-0.99,1.94-1.29
	C23.12,1.4,23.89,1.24,24.7,1.24L24.7,1.24z M24.25,4.71c0-0.14,0.06-0.27,0.15-0.37l0,0l0,0c0.09-0.09,0.23-0.15,0.37-0.15
	c0.15,0,0.28,0.06,0.37,0.15c0.09,0.09,0.15,0.23,0.15,0.37V7.5l2.09,1.24l0.02,0.01c0.12,0.07,0.19,0.19,0.22,0.31
	c0.03,0.13,0.02,0.27-0.05,0.39l0,0.01c0,0.01-0.01,0.01-0.01,0.02c-0.07,0.11-0.19,0.19-0.31,0.22c-0.13,0.03-0.27,0.02-0.39-0.05
	l-2.33-1.38c-0.08-0.04-0.15-0.11-0.2-0.19c-0.05-0.08-0.08-0.17-0.08-0.27l0,0L24.25,4.71L24.25,4.71L24.25,4.71z M28.18,3.72
	c-0.45-0.45-1-0.82-1.6-1.07C26,2.41,25.37,2.28,24.7,2.28s-1.3,0.13-1.88,0.37c-0.6,0.25-1.14,0.61-1.6,1.07s-0.82,1-1.07,1.6
	c-0.24,0.58-0.37,1.22-0.37,1.88s0.13,1.3,0.37,1.88c0.25,0.6,0.61,1.14,1.07,1.6c0.45,0.45,1,0.82,1.6,1.07
	c0.58,0.24,1.22,0.37,1.88,0.37s1.3-0.13,1.88-0.37c0.6-0.25,1.14-0.61,1.6-1.07c0.89-0.89,1.44-2.12,1.44-3.48
	c0-0.67-0.13-1.3-0.37-1.88C29,4.72,28.63,4.17,28.18,3.72L28.18,3.72z"/>
<line class="st2" x1="3.79" y1="30.67" x2="3.79" y2="2.78"/>
<line class="st0" x1="16.08" y1="7.62" x2="3.93" y2="7.62"/>
<line class="st3" x1="13.08" y1="12.46" x2="6.3" y2="12.46"/>
<line class="st2" x1="28.39" y1="30.67" x2="28.39" y2="15.44"/>
<line class="st3" x1="25.67" y1="16.17" x2="18.89" y2="16.17"/>
<line class="st3" x1="25.67" y1="22.94" x2="18.89" y2="22.94"/>
<line class="st3" x1="25.67" y1="26.83" x2="18.89" y2="26.83"/>
<line class="st3" x1="13.23" y1="19.61" x2="6.44" y2="19.61"/>
<line class="st3" x1="13.23" y1="22.94" x2="6.44" y2="22.94"/>
<line class="st0" x1="16.75" y1="3.04" x2="2.8" y2="3.04"/>
</svg>
