<?xml version="1.0" encoding="utf-8"?>
<!-- Generator: Adobe Illustrator 26.0.1, SVG Export Plug-In . SVG Version: 6.00 Build 0)  -->
<svg version="1.1" id="Livello_1" xmlns="http://www.w3.org/2000/svg" xmlns:xlink="http://www.w3.org/1999/xlink" x="0px" y="0px"
	 viewBox="0 0 32 32" style="enable-background:new 0 0 32 32;" xml:space="preserve">
<style type="text/css">
	.st0{fill:#4372A1;stroke:#4372A1;stroke-miterlimit:10;}
	.st1{fill:#FFFFFF;stroke:#B2B2B2;stroke-width:0.75;stroke-miterlimit:10;}
	.st2{fill:none;stroke:#4372A1;stroke-width:0.75;stroke-miterlimit:10;}
	.st3{fill:none;stroke:#4372A1;stroke-width:2;stroke-miterlimit:10;}
	.st4{fill:#00983A;stroke:#00983A;stroke-width:2;stroke-miterlimit:10;}
</style>
<line class="st0" x1="15.06" y1="3.58" x2="29.21" y2="3.63"/>
<line class="st1" x1="19.83" y1="4.33" x2="19.89" y2="12.22"/>
<line class="st1" x1="24.39" y1="4.33" x2="24.39" y2="12.17"/>
<line class="st1" x1="15.44" y1="9.83" x2="28.83" y2="9.83"/>
<line class="st1" x1="15.44" y1="7.06" x2="28.44" y2="7.06"/>
<rect x="15.44" y="4.33" class="st2" width="13.39" height="8.22"/>
<rect x="4.56" y="3.31" class="st3" width="4.97" height="4.97"/>
<rect x="12.01" y="13.26" class="st3" width="4.97" height="4.97"/>
<rect x="19.47" y="23.2" class="st3" width="4.97" height="4.97"/>
<line class="st3" x1="7.04" y1="9.11" x2="7.15" y2="29"/>
<line class="st3" x1="7.46" y1="15.74" x2="11.6" y2="15.74"/>
<line class="st3" x1="14.5" y1="25.69" x2="18.64" y2="25.69"/>
<line class="st3" x1="14.5" y1="19.06" x2="14.5" y2="26.69"/>
<g>
	<path class="st4" d="M13.28,6.51l0.94,0.37c0.08-0.18,0.23-0.47,0.47-0.85c0.24-0.38,0.56-0.79,0.96-1.22
		c0.35-0.37,0.72-0.69,1.12-0.96c0.4-0.28,0.82-0.52,1.26-0.71c0.44-0.19,0.89-0.33,1.37-0.43s0.97-0.15,1.48-0.15
		c0.51,0,1,0.05,1.48,0.15c0.48,0.1,0.93,0.24,1.37,0.43c0.44,0.19,0.86,0.42,1.26,0.71s0.77,0.6,1.12,0.96
		c0.52,0.55,0.9,1.06,1.13,1.52c0.24,0.46,0.36,0.71,0.37,0.73l-0.96,0.39c-0.42-0.82-0.86-1.47-1.33-1.95
		c-0.61-0.63-1.28-1.1-2.03-1.42c-0.75-0.32-1.55-0.48-2.42-0.48c-0.91,0-1.7,0.16-2.38,0.47c-0.67,0.3-1.23,0.66-1.69,1.07
		c-0.46,0.41-0.82,0.82-1.08,1.22c-0.26,0.41-0.44,0.71-0.53,0.91l0.91,0.36l-1.96,0.84L13.28,6.51z M27.39,12.84
		c-0.09,0.18-0.25,0.47-0.48,0.85c-0.23,0.38-0.55,0.79-0.95,1.22c-0.35,0.37-0.72,0.69-1.12,0.96c-0.4,0.28-0.82,0.52-1.26,0.71
		c-0.44,0.19-0.89,0.33-1.37,0.43s-0.97,0.15-1.48,0.15s-1-0.05-1.48-0.15s-0.93-0.24-1.37-0.43c-0.44-0.19-0.86-0.42-1.26-0.71
		c-0.4-0.27-0.77-0.59-1.12-0.96c-0.52-0.55-0.9-1.06-1.13-1.52c-0.24-0.46-0.36-0.71-0.37-0.73l0.96-0.39
		c0.42,0.82,0.86,1.47,1.33,1.95c0.61,0.63,1.28,1.1,2.03,1.42c0.75,0.32,1.55,0.48,2.42,0.48c0.91,0,1.7-0.16,2.37-0.47
		c0.67-0.3,1.24-0.66,1.7-1.07s0.83-0.82,1.09-1.22c0.26-0.41,0.44-0.71,0.53-0.91l-0.92-0.36l1.98-0.84l0.84,1.96L27.39,12.84z"/>
</g>
</svg>
