<?xml version="1.0" encoding="utf-8"?>
<!-- Generator: Adobe Illustrator 26.0.1, SVG Export Plug-In . SVG Version: 6.00 Build 0)  -->
<svg version="1.1" id="Livello_1" xmlns="http://www.w3.org/2000/svg" xmlns:xlink="http://www.w3.org/1999/xlink" x="0px" y="0px"
	 viewBox="0 0 256 256" enable-background="new 0 0 256 256" xml:space="preserve">
<g display="none">
	<path display="inline" fill="#FF00FF" d="M255,25v206H1V25H255 M256,24H0v208h256V24L256,24z"/>
</g>
<rect x="12.2" y="12.2" display="none" fill="none" stroke="#00FFFF" stroke-miterlimit="10" width="231.6" height="231.6"/>
<g display="none">
	<path display="inline" fill="#00FF00" d="M231,1v254H25V1H231 M232,0H24v256h208V0L232,0z"/>
</g>
<g>
	<path d="M63.9,36.8C60.7,21.2,48.1,10,33.5,10C15.9,10,1.7,25.3,1.7,44.2v155.6c0,18.9,14.3,34.2,31.8,34.2h220.6V36.8H63.9z
		 M33.5,180.3c9.9,0,17.9,8.7,17.9,19.5v2h13.9V51.6h174.8v167.7H33.5c-9.9,0-17.9-8.7-17.9-19.5C15.6,189.1,23.6,180.3,33.5,180.3z
		 M15.6,171.6V44.2c0-10.7,8-19.5,17.9-19.5s17.9,8.7,17.9,19.5v127.4c-5.3-3.9-11.5-6-17.9-6S20.9,167.7,15.6,171.6z"/>
	<path d="M94.9,141.7v57.9h51.3v-48.3h14.9v48.3h51.3v-57.9l4.1,4.2l9.4-9.6l-72.4-73.9l-72.4,73.9l9.4,9.6L94.9,141.7z
		 M199.1,185.9h-24.4v-48.3h-41.9v48.3h-24.4V128l45.3-46.2l45.3,46.2V185.9z"/>
</g>
<g>
</g>
<g>
</g>
<g>
</g>
<g>
</g>
<g>
</g>
<g>
</g>
<g>
</g>
<g>
</g>
<g>
</g>
<g>
</g>
<g>
</g>
<g>
</g>
<g>
</g>
<g>
</g>
<g>
</g>
</svg>
