<?xml version="1.0" encoding="utf-8"?>
<!-- Generator: Adobe Illustrator 18.0.0, SVG Export Plug-In . SVG Version: 6.00 Build 0)  -->
<!DOCTYPE svg PUBLIC "-//W3C//DTD SVG 1.1//EN" "http://www.w3.org/Graphics/SVG/1.1/DTD/svg11.dtd">
<svg version="1.1" id="Livello_1" xmlns="http://www.w3.org/2000/svg" xmlns:xlink="http://www.w3.org/1999/xlink" x="0px" y="0px"
	 viewBox="0 0 256 256" enable-background="new 0 0 256 256" xml:space="preserve">
<path d="M16,16h79v47h46v21h16V51.8L105.5,0H0v72h16V16z M111,28.2L129.7,47H111V28.2z"/>
<polygon points="144,116 223,116 223,163 256,163 256,147 239,147 239,128.2 256,145.3 256,122.6 233.5,100 128,100 128,176 
	144,176 "/>
<path d="M84.7,201.1l-23,0.2l19.3,19c-18.1,0.1-30-0.3-33.6-3.9c-3.8-3.8-3.7-16.5-3.5-35.8c0-4.9,0.1-10.5,0.1-16.6H28
	c0,6-0.1,11.5-0.1,16.4c-0.3,25.8-0.4,38.8,8.1,47.3c7.4,7.4,18.5,8.6,40,8.6c1.6,0,3.3,0,5,0l-19,19.3l23-0.2L112,228L84.7,201.1z"
	/>
<g>
	<rect y="88" width="16" height="60"/>
	<polygon points="24.3,88 24,88 24,148 40,148 40,128 60,128 60,112 40,112 40,104 68,104 68,88 40,88 	"/>
	<polygon points="112,104 112,88 92,88 80.2,88 76,88 76,148 80.2,148 92,148 112,148 112,132 92,132 92,104 	"/>
</g>
<g>
	<rect x="128" y="188" width="16" height="60"/>
	<polygon points="152.3,188 152,188 152,248 168,248 168,228 188,228 188,212 168,212 168,204 196,204 196,188 168,188 	"/>
	<polygon points="240,204 240,188 220,188 208.2,188 204,188 204,248 208.2,248 220,248 240,248 240,232 220,232 220,204 	"/>
</g>
</svg>
