<?xml version="1.0" encoding="utf-8"?>
<!-- Generator: Adobe Illustrator 18.0.0, SVG Export Plug-In . SVG Version: 6.00 Build 0)  -->
<!DOCTYPE svg PUBLIC "-//W3C//DTD SVG 1.1//EN" "http://www.w3.org/Graphics/SVG/1.1/DTD/svg11.dtd">
<svg version="1.1" id="Livello_1" xmlns="http://www.w3.org/2000/svg" xmlns:xlink="http://www.w3.org/1999/xlink" x="0px" y="0px"
	 viewBox="0 0 256 256" enable-background="new 0 0 256 256" xml:space="preserve">
<g>
	<path d="M225.4,200c8.2,4,15,9.7,20.5,17.1c5.4,7.3,8.8,15.6,10.1,24.6h-13.9c-0.9-4.8-2.6-9.2-5.2-13.3c-2.5-4.1-5.6-7.7-9.2-10.6
		c-3.6-3-7.7-5.3-12.2-7c-4.5-1.7-9.2-2.5-14.1-2.5c-5,0-9.7,0.8-14.2,2.5c-4.5,1.7-8.5,4-12.2,7c-3.6,3-6.7,6.5-9.2,10.6
		c-2.5,4.1-4.2,8.6-5.2,13.3H147c1.3-9.1,4.7-17.3,10.1-24.6c5.4-7.3,12.2-13,20.5-17.1c-4.8-3.8-8.5-8.4-11.1-13.7
		c-2.6-5.4-4-11.1-4-17.1c0-3.8,0.5-7.4,1.6-11c1-3.6,2.6-6.9,4.5-9.9c2-3.1,4.3-5.8,7.1-8.3c2.8-2.5,5.9-4.5,9.3-6.1
		c-2.3-3.3-4.9-6.2-7.8-8.8c-2.9-2.6-6.1-4.8-9.6-6.6c-3.4-1.8-7.1-3.3-10.9-4.2c-3.8-1-7.7-1.4-11.6-1.4c-6.7,0-13.1,1.3-19.3,4
		c-6.1,2.6-11.5,6.4-16,11.4c2,5.5,3,11.1,3,16.9c0,7.7-1.7,15-5.2,21.8c-3.4,6.8-8.3,12.5-14.5,17.1c5.5,2.8,10.4,6.2,14.8,10.3
		c4.4,4.1,8.2,8.6,11.3,13.6c3.1,5,5.5,10.4,7.2,16.1c1.7,5.8,2.5,11.7,2.5,17.8h-16.1c0-6.6-1.3-12.9-3.8-18.8
		c-2.5-5.9-6-11-10.4-15.4c-4.4-4.4-9.6-7.9-15.4-10.4c-5.9-2.5-12.1-3.8-18.8-3.8c-6.7,0-13,1.3-18.8,3.8c-5.8,2.5-11,6-15.4,10.4
		s-7.9,9.6-10.4,15.4c-2.5,5.9-3.8,12.1-3.8,18.8H0c0-6.1,0.8-12.1,2.5-17.8c1.7-5.7,4.1-11.1,7.2-16.1c3.1-5,6.9-9.5,11.3-13.6
		c4.4-4.1,9.3-7.5,14.8-10.3c-6.2-4.6-11-10.3-14.5-17.1c-3.4-6.8-5.2-14.1-5.2-21.8c0-6.6,1.3-12.9,3.8-18.8
		c2.5-5.9,6-11,10.4-15.4c4.4-4.4,9.5-7.9,15.4-10.4c5.8-2.5,12.1-3.8,18.8-3.8c7.1,0,13.9,1.5,20.3,4.5s11.9,7.2,16.6,12.6
		c2.2-2.1,4.6-4,7.1-5.7c2.6-1.7,5.2-3.3,7.9-4.7c-6.2-4.6-11-10.3-14.5-17.1c-3.4-6.8-5.2-14.1-5.2-21.8c0-6.6,1.3-12.9,3.8-18.8
		c2.5-5.9,6-11,10.4-15.4s9.5-7.9,15.4-10.4c5.8-2.5,12.1-3.8,18.8-3.8c6.6,0,12.9,1.3,18.8,3.8c5.9,2.5,11,6,15.4,10.4
		s7.9,9.6,10.4,15.4c2.5,5.9,3.8,12.1,3.8,18.8c0,7.7-1.7,15-5.2,21.8c-3.4,6.8-8.3,12.5-14.5,17.1c5.9,3.1,11.2,6.9,15.9,11.3
		c4.7,4.5,8.7,9.6,11.9,15.5c5.4,0,10.4,1,15.2,3.1c4.7,2.1,8.9,4.8,12.4,8.4c3.5,3.5,6.3,7.7,8.3,12.4c2,4.7,3,9.8,3,15.2
		c0,6-1.3,11.8-4,17.1C233.9,191.6,230.2,196.2,225.4,200z M64.5,177.2c4.4,0,8.6-0.8,12.5-2.5c3.9-1.7,7.3-4,10.3-6.9
		c2.9-2.9,5.2-6.4,6.9-10.3c1.7-3.9,2.5-8.1,2.5-12.5c0-4.4-0.8-8.6-2.5-12.5c-1.7-3.9-4-7.3-6.9-10.3c-2.9-2.9-6.4-5.2-10.3-6.9
		c-3.9-1.7-8.1-2.5-12.5-2.5c-4.5,0-8.6,0.8-12.5,2.5c-3.9,1.7-7.3,4-10.3,6.9c-2.9,2.9-5.2,6.4-6.9,10.3c-1.7,3.9-2.5,8.1-2.5,12.5
		c0,4.5,0.8,8.6,2.5,12.5c1.7,3.9,4,7.3,6.9,10.3c2.9,2.9,6.4,5.2,10.3,6.9C55.8,176.3,60,177.2,64.5,177.2z M112.8,64.4
		c0,4.5,0.8,8.6,2.5,12.5c1.7,3.9,4,7.3,6.9,10.3c2.9,2.9,6.4,5.2,10.3,6.9c3.9,1.7,8.1,2.5,12.5,2.5c4.4,0,8.6-0.8,12.5-2.5
		c3.9-1.7,7.3-4,10.3-6.9c2.9-2.9,5.2-6.4,6.9-10.3c1.7-3.9,2.5-8.1,2.5-12.5c0-4.4-0.8-8.6-2.5-12.5c-1.7-3.9-4-7.3-6.9-10.3
		c-2.9-2.9-6.4-5.2-10.3-6.9c-3.9-1.7-8.1-2.5-12.5-2.5c-4.5,0-8.6,0.8-12.5,2.5c-3.9,1.7-7.3,4-10.3,6.9c-2.9,2.9-5.2,6.4-6.9,10.3
		C113.7,55.7,112.8,59.9,112.8,64.4z M201.5,143.7c-3.5,0-6.8,0.7-9.9,2c-3.1,1.3-5.8,3.2-8.1,5.5c-2.3,2.3-4.1,5-5.5,8.1
		c-1.3,3.1-2,6.4-2,9.9c0,3.5,0.7,6.8,2,9.9c1.3,3.1,3.2,5.8,5.5,8.1c2.3,2.3,5,4.1,8.1,5.5c3.1,1.3,6.4,2,9.9,2s6.8-0.7,9.9-2
		c3.1-1.3,5.7-3.2,8.1-5.5c2.3-2.3,4.1-5,5.5-8.1c1.3-3.1,2-6.4,2-9.9c0-3.5-0.7-6.8-2-9.9c-1.3-3.1-3.2-5.7-5.5-8.1
		c-2.3-2.3-5-4.1-8.1-5.5C208.3,144.4,205,143.7,201.5,143.7z"/>
</g>
</svg>
