<?xml version="1.0" encoding="utf-8"?>
<!-- Generator: Adobe Illustrator 18.0.0, SVG Export Plug-In . SVG Version: 6.00 Build 0)  -->
<!DOCTYPE svg PUBLIC "-//W3C//DTD SVG 1.1//EN" "http://www.w3.org/Graphics/SVG/1.1/DTD/svg11.dtd">
<svg version="1.1" id="Livello_1" xmlns="http://www.w3.org/2000/svg" xmlns:xlink="http://www.w3.org/1999/xlink" x="0px" y="0px"
	 viewBox="0 0 256 256" enable-background="new 0 0 256 256" xml:space="preserve">
<g>
	<path d="M223.4,123.5c0,0.8,0,1.5,0.1,2.3c0,0.8,0.1,1.5,0.1,2.3c0,0.8,0,1.5-0.1,2.3s-0.1,1.5-0.1,2.3l32.6,20.2l-20,48.2
		l-37.3-8.6c-2,2.2-4.1,4.3-6.3,6.3l8.6,37.3l-48.2,20l-20.2-32.6c-0.8,0-1.5,0-2.3,0.1s-1.5,0.1-2.3,0.1c-0.8,0-1.5,0-2.3-0.1
		c-0.8,0-1.5-0.1-2.3-0.1L103.2,256l-48.2-20l8.6-37.3c-2.2-2-4.3-4.1-6.3-6.3L20,200.9L0,152.8l32.6-20.2c0-0.8,0-1.5-0.1-2.3
		c0-0.8-0.1-1.5-0.1-2.3c0-0.8,0-1.5,0.1-2.3c0-0.8,0.1-1.5,0.1-2.3L0,103.2l20-48.2l37.3,8.6c2-2.2,4.1-4.3,6.3-6.3L55.1,20
		l48.2-20l20.2,32.6c0.8,0,1.5,0,2.3-0.1c0.8,0,1.5-0.1,2.3-0.1c0.8,0,1.5,0,2.3,0.1c0.8,0,1.5,0.1,2.3,0.1L152.8,0l48.2,20
		l-8.6,37.3c2.2,2,4.3,4.1,6.3,6.3l37.3-8.6l20,48.2L223.4,123.5z M208.7,139.8c0.2-2,0.3-4,0.5-6s0.3-4,0.3-6
		c0-1.9-0.1-3.9-0.3-5.9s-0.3-4-0.5-5.9l29.7-18.5l-10.8-26.2l-34.1,7.9c-2.6-3.2-5.3-6.1-8-8.8c-2.7-2.7-5.7-5.4-8.9-8l7.9-34.1
		l-26.2-10.8l-18.6,29.7c-1.9-0.2-3.9-0.3-5.9-0.5c-2-0.2-4-0.3-5.9-0.3c-2,0-4,0.1-6,0.3c-2,0.2-4,0.3-6,0.5L97.6,17.6L71.4,28.4
		l7.9,34.1c-3.2,2.6-6.1,5.3-8.8,8c-2.7,2.7-5.4,5.7-8,8.9l-34.1-7.9L17.6,97.6l29.7,18.6c-0.2,2-0.3,4-0.5,6c-0.2,2-0.3,4-0.3,6
		c0,1.9,0.1,3.9,0.3,5.9c0.2,2,0.3,4,0.5,5.9l-29.7,18.5l10.8,26.2l34.1-7.9c2.6,3.2,5.3,6.1,8,8.8c2.7,2.7,5.7,5.4,8.9,8l-7.9,34.1
		l26.2,10.8l18.6-29.7c1.9,0.2,3.9,0.3,5.9,0.5s4,0.3,5.9,0.3c2,0,4-0.1,6-0.3c2-0.2,4-0.3,6-0.5l18.5,29.7l26.2-10.8l-7.9-34.1
		c3.2-2.6,6.1-5.3,8.8-8c2.7-2.7,5.4-5.7,8-8.9l34.1,7.9l10.8-26.2L208.7,139.8z M128,80.7c6.5,0,12.7,1.2,18.4,3.7
		c5.7,2.5,10.8,5.8,15,10.1c4.3,4.3,7.6,9.3,10.1,15c2.5,5.7,3.7,11.9,3.7,18.4c0,6.5-1.2,12.7-3.7,18.4c-2.5,5.7-5.8,10.8-10.1,15
		c-4.3,4.3-9.3,7.6-15,10.1c-5.7,2.5-11.9,3.7-18.4,3.7c-6.5,0-12.7-1.2-18.4-3.7c-5.7-2.5-10.8-5.8-15-10.1
		c-4.3-4.3-7.6-9.3-10.1-15c-2.5-5.7-3.7-11.9-3.7-18.4c0-6.5,1.2-12.7,3.7-18.4c2.5-5.7,5.8-10.8,10.1-15c4.3-4.3,9.3-7.6,15-10.1
		C115.3,82,121.5,80.7,128,80.7z M128,161.2c4.6,0,8.9-0.9,13-2.6s7.5-4.1,10.6-7.1s5.4-6.5,7.1-10.6s2.6-8.3,2.6-13
		c0-4.6-0.9-8.9-2.6-13s-4.1-7.5-7.1-10.6c-3-3-6.5-5.4-10.6-7.1c-4-1.7-8.3-2.6-13-2.6c-4.6,0-8.9,0.9-13,2.6
		c-4,1.7-7.5,4.1-10.6,7.1c-3,3-5.4,6.5-7.1,10.6c-1.7,4-2.6,8.3-2.6,13c0,4.6,0.9,8.9,2.6,13c1.7,4,4.1,7.5,7.1,10.6
		c3,3,6.5,5.4,10.6,7.1S123.4,161.2,128,161.2z"/>
</g>
</svg>
