<?xml version="1.0" encoding="utf-8"?>
<!-- Generator: Adobe Illustrator 23.0.3, SVG Export Plug-In . SVG Version: 6.00 Build 0)  -->
<svg version="1.1" id="Livello_1" xmlns="http://www.w3.org/2000/svg" xmlns:xlink="http://www.w3.org/1999/xlink" x="0px" y="0px"
	 viewBox="0 0 256 256" enable-background="new 0 0 256 256" xml:space="preserve">
<g display="none">
	<path display="inline" fill="#FF00FF" d="M255.8,24.3v207.5H0.3V24.3H255.8 M256,24H0v208h256V24L256,24z"/>
</g>
<rect x="12.2" y="12.2" display="none" fill="none" stroke="#00FFFF" stroke-width="0.25" stroke-miterlimit="10" width="231.6" height="231.6"/>
<g display="none">
	<path display="inline" fill="#00FF00" d="M231.8,0.3v255.5H24.3V0.3H231.8 M232,0H24v256h208V0L232,0z"/>
</g>
<g>
	<path d="M128,58.9V42.1l-9.9-5L68,12.1l-48,24l-8,4v6.8V114l55.9,27.9l60.1-27.8V58.9z M60,120.1l-32-16V58l32,16V120.1z M37.9,45
		L68,30l31.5,15.7L68.1,60.2L37.9,45z M112,103.9l-36,16.6V74.2l36-16.6V103.9z"/>
	<path d="M241,183.4c-25.4-34.4-53.3-51.6-82.9-51.2c-48.9,0.7-83.2,49.3-84.6,51.4l-3.4,4.8l3.6,4.6c26.5,33.8,54.6,50.9,83.8,50.9
		c1.1,0,2.1,0,3.2-0.1c47.8-2.1,79.2-49.4,80.6-51.4l3-4.7L241,183.4z M160,227.9c-23.5,1-47-12.4-69.8-39.9
		c9.3-11.3,35.5-39.4,68.1-39.8c22.9-0.3,45.2,13.1,66.3,40.1C216.1,199.2,191.9,226.6,160,227.9z"/>
	<path d="M157.3,160.2c-15.5,0-28,12.5-28,28s12.5,28,28,28s28-12.5,28-28S172.7,160.2,157.3,160.2z M157.3,200.2
		c-6.6,0-12-5.4-12-12s5.4-12,12-12c6.6,0,12,5.4,12,12S163.9,200.2,157.3,200.2z"/>
</g>
</svg>
