<?xml version="1.0" encoding="utf-8"?>
<!-- Generator: Adobe Illustrator 26.0.1, SVG Export Plug-In . SVG Version: 6.00 Build 0)  -->
<svg version="1.1" id="Livello_1" xmlns="http://www.w3.org/2000/svg" xmlns:xlink="http://www.w3.org/1999/xlink" x="0px" y="0px"
	 viewBox="0 0 256 256" enable-background="new 0 0 256 256" xml:space="preserve">
<g display="none">
	<path display="inline" fill="#FF00FF" d="M255,25v206H1V25H255 M256,24H0v208h256V24L256,24z"/>
</g>
<rect x="12.2" y="12.2" display="none" fill="none" stroke="#00FFFF" stroke-miterlimit="10" width="231.6" height="231.6"/>
<g display="none">
	<path display="inline" fill="#00FF00" d="M231,1v254H25V1H231 M232,0H24v256h208V0L232,0z"/>
</g>
<path d="M127.8,11.8C63.8,11.8,11.7,63.9,11.7,128s52.1,116.2,116.2,116.2C191.9,244.1,244,192,244,128S191.9,11.8,127.8,11.8z
	 M127.8,27.8C183.1,27.8,228,72.8,228,128c0,22-7.1,42.4-19.2,59c-10.5-19.7-27.8-35-49-42.8c13.9-10,23-26.3,23-44.7
	c0-30.3-24.6-54.9-54.9-54.9S72.9,69.1,72.9,99.4c0,18.4,9.1,34.7,23.1,44.7c-20.6,7.6-38.3,22.6-49,42.8
	c-12.1-16.6-19.2-36.9-19.2-59C27.7,72.8,72.6,27.8,127.8,27.8z M127.8,138.4c-21.5,0-38.9-17.5-38.9-38.9
	c0-21.5,17.5-38.9,38.9-38.9c21.5,0,38.9,17.5,38.9,38.9C166.8,120.9,149.3,138.4,127.8,138.4z M58.4,200.1
	c15.6-36.3,57.1-54.8,94.8-41.4c20,7.1,35.8,22,44.2,41.3c-18,17.4-42.5,28.1-69.5,28.1C100.9,228.1,76.4,217.4,58.4,200.1z"/>
<g>
</g>
<g>
</g>
<g>
</g>
<g>
</g>
<g>
</g>
<g>
</g>
<g>
</g>
<g>
</g>
<g>
</g>
<g>
</g>
<g>
</g>
<g>
</g>
<g>
</g>
<g>
</g>
<g>
</g>
</svg>
