<?xml version="1.0" encoding="utf-8"?>
<!-- Generator: Adobe Illustrator 26.0.1, SVG Export Plug-In . SVG Version: 6.00 Build 0)  -->
<svg version="1.1" id="Livello_1" xmlns="http://www.w3.org/2000/svg" xmlns:xlink="http://www.w3.org/1999/xlink" x="0px" y="0px"
	 viewBox="0 0 256 256" enable-background="new 0 0 256 256" xml:space="preserve">
<g>
	<path d="M175.9,95.8c8.8,0,17.1,1.7,24.9,5c7.8,3.3,14.5,7.9,20.3,13.7c5.8,5.8,10.3,12.6,13.7,20.3c3.3,7.8,5,16.1,5,24.9v95.8
		h-16v-95.8c0-6.6-1.2-12.8-3.7-18.6c-2.5-5.8-5.9-10.9-10.3-15.3c-4.4-4.4-9.5-7.8-15.3-10.3c-5.8-2.5-12-3.7-18.6-3.7h-16v143.6
		H96.1v-47.9h-16v47.9H16.3V63.8h16V31.9h31.9V0H112v31.9H144v31.9h16v31.9H175.9z M144,79.8H32.2v159.6h31.9v-47.9H112v47.9H144
		V79.8z M48.2,63.8H128v-16H48.2V63.8z M64.2,127.7h-16V95.8h16V127.7z M64.2,175.6h-16v-31.9h16V175.6z M80.1,31.9h16V16h-16V31.9z
		 M96.1,127.7h-16V95.8h16V127.7z M96.1,175.6h-16v-31.9h16V175.6z M128,127.7h-16V95.8h16V127.7z M128,175.6h-16v-31.9h16V175.6z
		 M175.9,143.6h31.9v16h-31.9V143.6z M175.9,175.6h31.9v16h-31.9V175.6z M175.9,207.5h31.9v16h-31.9V207.5z M175.9,239.4h31.9v16
		h-31.9V239.4z"/>
</g>
<g>
</g>
<g>
</g>
<g>
</g>
<g>
</g>
<g>
</g>
<g>
</g>
<g>
</g>
<g>
</g>
<g>
</g>
<g>
</g>
<g>
</g>
<g>
</g>
<g>
</g>
<g>
</g>
<g>
</g>
</svg>
