<?xml version="1.0" encoding="utf-8"?>
<!-- Generator: Adobe Illustrator 26.0.1, SVG Export Plug-In . SVG Version: 6.00 Build 0)  -->
<svg version="1.1" id="Livello_1" xmlns="http://www.w3.org/2000/svg" xmlns:xlink="http://www.w3.org/1999/xlink" x="0px" y="0px"
	 viewBox="0 0 256 256" style="enable-background:new 0 0 256 256;" xml:space="preserve">
<style type="text/css">
	.st0{display:none;}
	.st1{display:inline;fill:#FF00FF;}
	.st2{display:none;fill:none;stroke:#00FFFF;stroke-miterlimit:10;}
	.st3{display:inline;fill:#00FF00;}
</style>
<g class="st0">
	<path class="st1" d="M255,25v206H1V25H255 M256,24H0v208h256V24L256,24z"/>
</g>
<rect x="12.2" y="12.2" class="st2" width="231.6" height="231.6"/>
<g class="st0">
	<path class="st3" d="M231,1v254H25V1H231 M232,0H24v256h208V0L232,0z"/>
</g>
<path d="M150.2,225.6c-7.2,1.6-14.7,2.5-22.4,2.5c-27,0-51.4-10.7-69.5-28.1c15.6-36.3,57.1-54.8,94.8-41.4c2.2,0.8,4.3,1.7,6.4,2.6
	c4.1-4.3,8.8-7.9,14.1-10.7c-4.4-2.5-9-4.7-13.9-6.5c13.9-10,23-26.3,23-44.7c0-30.3-24.6-54.9-54.9-54.9S72.9,69.1,72.9,99.4
	c0,18.4,9.1,34.7,23.1,44.7c-20.6,7.6-38.3,22.6-49,42.8c-12.1-16.6-19.2-36.9-19.2-59c0-55.2,44.9-100.2,100.2-100.2
	S228,72.8,228,128c0,7.6-0.9,15-2.5,22.2c5.2,2.6,9.9,6.1,13.9,10.1c3-10.2,4.6-21.1,4.6-32.3c0-64.1-52.1-116.2-116.2-116.2
	C63.8,11.8,11.7,63.9,11.7,128s52.1,116.2,116.2,116.2c11.3,0,22.2-1.6,32.5-4.6C156.3,235.5,152.9,230.8,150.2,225.6z M88.9,99.4
	c0-21.5,17.5-38.9,38.9-38.9c21.5,0,38.9,17.5,38.9,38.9c0,21.5-17.5,38.9-38.9,38.9C106.4,138.4,88.9,120.9,88.9,99.4z"/>
<path d="M200,144c-30.9,0-56,25.1-56,56c0,30.9,25.1,56,56,56s56-25.1,56-56C256,169.1,230.9,144,200,144z M209.1,229.9v-21.3h-45
	v-18.9h45v-21.3l30.8,30.8L209.1,229.9z"/>
</svg>
