<?xml version="1.0" encoding="utf-8"?>
<!-- Generator: Adobe Illustrator 26.0.1, SVG Export Plug-In . SVG Version: 6.00 Build 0)  -->
<svg version="1.1" id="Livello_1" xmlns="http://www.w3.org/2000/svg" xmlns:xlink="http://www.w3.org/1999/xlink" x="0px" y="0px"
	 viewBox="0 0 256 256" style="enable-background:new 0 0 256 256;" xml:space="preserve">
<style type="text/css">
	.st0{display:none;}
	.st1{display:inline;fill:#FF00FF;}
	.st2{display:none;fill:none;stroke:#00FFFF;stroke-miterlimit:10;}
	.st3{display:inline;fill:#00FF00;}
	.st4{display:inline;fill:#FF0000;}
</style>
<g class="st0">
	<path class="st1" d="M255,25v206H1V25H255 M256,24H0v208h256V24L256,24z"/>
</g>
<rect x="12.2" y="12.2" class="st2" width="231.6" height="231.6"/>
<g class="st0">
	<path class="st3" d="M231,1v254H25V1H231 M232,0H24v256h208V0L232,0z"/>
</g>
<g class="st0">
	<path class="st4" d="M189.7,184.7h-12.8c-0.1-6.3,2.1-11.4,6.4-15.5c4.4-4.1,10.1-6.1,17.2-6.1c4.6,0,8.5,0.8,11.7,2.5
		c3.2,1.7,5.8,4.1,7.7,7.3c1.9,3.2,2.9,6.5,2.9,10.1c0,1.9-0.3,3.8-0.9,5.7c-0.6,1.9-1.6,3.8-2.9,5.7c-0.8,1.1-2.7,3.1-5.6,5.8
		c-2.8,2.6-4.6,4.4-5.3,5.4c-0.7,1.1-1.3,2.5-1.8,4.2s-0.8,4.2-0.9,7.3h-13.2l0-2.2c0-4.4,0.8-8.3,2.4-11.9c1.6-3.6,4.2-6.9,7.8-10
		c3.5-3,5.5-5.1,6.2-6.2c0.7-1.1,1.1-2.5,1.1-4c0-2.1-0.9-3.8-2.6-5.3c-1.7-1.4-4.1-2.2-7-2.2c-3,0-5.5,0.9-7.4,2.6
		C190.7,179.6,189.7,181.9,189.7,184.7z M199,222.6c2.4,0,4.4,0.8,6.1,2.4c1.7,1.6,2.5,3.6,2.5,5.9c0,2.3-0.8,4.3-2.5,5.9
		s-3.7,2.5-6,2.5s-4.3-0.8-6-2.5c-1.6-1.6-2.5-3.6-2.5-5.9c0-2.3,0.8-4.3,2.4-5.9C194.7,223.4,196.7,222.6,199,222.6z"/>
</g>
<g>
	<path d="M207.2,192.5c-0.9-0.9-2-1.7-3.3-2.2c-1.3-0.5-2.6-0.8-4.1-0.8c-1.4,0-2.8,0.3-4.1,0.8c-1.3,0.5-2.4,1.3-3.3,2.2
		s-1.7,2-2.2,3.3c-0.5,1.3-0.8,2.6-0.8,4.1c0,1.4,0.3,2.8,0.8,4.1c0.5,1.3,1.3,2.4,2.2,3.3s2,1.7,3.3,2.2c1.3,0.5,2.6,0.8,4.1,0.8
		c1.4,0,2.8-0.3,4.1-0.8c1.3-0.5,2.4-1.3,3.3-2.2c0.9-0.9,1.7-2,2.2-3.3c0.5-1.3,0.8-2.6,0.8-4.1c0-1.4-0.3-2.8-0.8-4.1
		C208.9,194.6,208.2,193.5,207.2,192.5z"/>
	<path class="st0" d="M225.3,201.7c0.1-0.6,0.1-1.2,0.1-1.9c0-0.6,0-1.2-0.1-1.9c-0.1-0.6-0.1-1.2-0.2-1.9l9.3-5.8l-3.4-8.2
		l-10.7,2.5c-0.8-1-1.6-1.9-2.5-2.8c-0.9-0.8-1.8-1.7-2.8-2.5l2.5-10.7l-8.2-3.4l-5.8,9.3c-0.6-0.1-1.2-0.1-1.9-0.2
		c-0.6-0.1-1.2-0.1-1.9-0.1c-0.6,0-1.3,0-1.9,0.1c-0.6,0.1-1.2,0.1-1.9,0.2l-5.8-9.3l-8.2,3.4l2.5,10.7c-1,0.8-1.9,1.6-2.8,2.5
		c-0.8,0.9-1.7,1.8-2.5,2.8l-10.7-2.5l-3.4,8.2l9.3,5.8c-0.1,0.6-0.1,1.3-0.2,1.9c-0.1,0.6-0.1,1.2-0.1,1.9c0,0.6,0,1.2,0.1,1.9
		c0.1,0.6,0.1,1.2,0.2,1.9l-9.3,5.8l3.4,8.2l10.7-2.5c0.8,1,1.6,1.9,2.5,2.8c0.9,0.8,1.8,1.7,2.8,2.5l-2.5,10.7l8.2,3.4l5.8-9.3
		c0.6,0.1,1.2,0.1,1.9,0.2s1.2,0.1,1.9,0.1c0.6,0,1.3,0,1.9-0.1c0.6-0.1,1.2-0.1,1.9-0.2l5.8,9.3l8.2-3.4l-2.5-10.7
		c1-0.8,1.9-1.6,2.8-2.5c0.8-0.9,1.7-1.8,2.5-2.8l10.7,2.5l3.4-8.2l-9.3-5.8C225.2,203,225.2,202.4,225.3,201.7z M213.5,205.7
		c-0.8,1.8-1.8,3.4-3.2,4.7c-1.3,1.3-2.9,2.4-4.7,3.2c-1.8,0.8-3.7,1.2-5.8,1.2c-2,0-4-0.4-5.8-1.2s-3.4-1.8-4.7-3.2
		c-1.3-1.3-2.4-2.9-3.2-4.7c-0.8-1.8-1.2-3.7-1.2-5.8c0-2,0.4-4,1.2-5.8s1.8-3.4,3.2-4.7s2.9-2.4,4.7-3.2s3.7-1.2,5.8-1.2
		c2,0,4,0.4,5.8,1.2c1.8,0.8,3.4,1.8,4.7,3.2s2.4,2.9,3.2,4.7c0.8,1.8,1.2,3.7,1.2,5.8C214.7,202,214.3,203.9,213.5,205.7z"/>
	<path d="M237.9,158.7c0.5,0.5,1.1,1,1.6,1.5c3-10.2,4.6-21.1,4.6-32.3c0-64.1-52.1-116.2-116.2-116.2C63.8,11.8,11.7,63.9,11.7,128
		s52.1,116.2,116.2,116.2c11.3,0,22.2-1.6,32.5-4.6c10.1,10.2,24.2,16.5,39.7,16.5c30.9,0,56-25.1,56-56
		C256,183.7,249,169,237.9,158.7z M27.7,128c0-55.2,44.9-100.2,100.2-100.2S228,72.8,228,128c0,7.6-0.9,15-2.5,22.2
		c-7.7-3.9-16.3-6.2-25.5-6.2c-9.5,0-18.5,2.4-26.4,6.6c0,0,0,0,0,0c-4.4-2.5-9-4.7-13.9-6.5c13.9-10,23-26.3,23-44.7
		c0-30.3-24.6-54.9-54.9-54.9S72.9,69.1,72.9,99.4c0,18.4,9.1,34.7,23.1,44.7c-20.6,7.6-38.3,22.6-49,42.8
		C34.8,170.4,27.7,150,27.7,128z M236.8,157.8c-0.3-0.2-0.5-0.4-0.8-0.7C236.3,157.4,236.6,157.6,236.8,157.8z M234.9,156.2
		c-0.2-0.2-0.4-0.3-0.6-0.5C234.5,155.9,234.7,156.1,234.9,156.2z M233,154.7c-0.1-0.1-0.2-0.1-0.3-0.2
		C232.8,154.6,232.9,154.7,233,154.7z M172.2,151.4c-0.2,0.1-0.5,0.3-0.7,0.4C171.7,151.7,172,151.5,172.2,151.4z M170.1,152.6
		c-0.2,0.1-0.4,0.3-0.7,0.4C169.7,152.9,169.9,152.8,170.1,152.6z M168.1,154c-0.2,0.1-0.3,0.2-0.5,0.3
		C167.8,154.2,167.9,154.1,168.1,154z M127.8,138.4c-21.5,0-38.9-17.5-38.9-38.9c0-21.5,17.5-38.9,38.9-38.9
		c21.5,0,38.9,17.5,38.9,38.9C166.8,120.9,149.3,138.4,127.8,138.4z M58.4,200.1c15.6-36.3,57.1-54.8,94.8-41.4
		c2.2,0.8,4.3,1.7,6.4,2.6C149.9,171.4,144,185,144,200c0,9.2,2.3,17.9,6.2,25.6c-7.2,1.6-14.7,2.5-22.4,2.5
		C100.9,228.1,76.4,217.4,58.4,200.1z M158.7,237.9c0.5,0.6,1,1.1,1.6,1.7C159.8,239,159.3,238.4,158.7,237.9z M154.6,232.7
		c0.1,0.1,0.1,0.2,0.2,0.3C154.7,232.9,154.6,232.8,154.6,232.7z M155.7,234.3c0.2,0.2,0.4,0.5,0.6,0.7
		C156.1,234.8,155.9,234.5,155.7,234.3z M157.2,236.1c0.3,0.3,0.5,0.6,0.8,0.9C157.7,236.7,157.4,236.4,157.2,236.1z M233.7,222.8
		l-11.7-2.7c-0.6,0.7-1.3,1.3-2,2l2.7,11.7l-15.1,6.3l-6.3-10.2c-0.2,0-0.5,0-0.7,0c-0.2,0-0.5,0-0.7,0c-0.2,0-0.5,0-0.7,0
		c-0.2,0-0.5,0-0.7,0l-6.3,10.2l-15.1-6.3l2.7-11.7c-0.7-0.6-1.3-1.3-2-2l-11.7,2.7l-6.3-15.1l10.2-6.3c0-0.2,0-0.5,0-0.7
		s0-0.5,0-0.7c0-0.2,0-0.5,0-0.7c0-0.2,0-0.5,0-0.7l-10.2-6.3l6.3-15.1l11.7,2.7c0.6-0.7,1.3-1.3,2-2l-2.7-11.7l15.1-6.3l6.3,10.2
		c0.2,0,0.5,0,0.7,0c0.2,0,0.5,0,0.7,0c0.2,0,0.5,0,0.7,0s0.5,0,0.7,0l6.3-10.2l15.1,6.3l-2.7,11.7c0.7,0.6,1.3,1.3,2,2l11.7-2.7
		l6.3,15.1l-10.2,6.3c0,0.2,0,0.5,0,0.7c0,0.2,0,0.5,0,0.7c0,0.2,0,0.5,0,0.7s0,0.5,0,0.7l10.2,6.3L233.7,222.8z"/>
</g>
</svg>
