<?xml version="1.0" encoding="utf-8"?>
<!-- Generator: Adobe Illustrator 26.0.1, SVG Export Plug-In . SVG Version: 6.00 Build 0)  -->
<svg version="1.1" id="Livello_1" xmlns="http://www.w3.org/2000/svg" xmlns:xlink="http://www.w3.org/1999/xlink" x="0px" y="0px"
	 viewBox="0 0 256 256" style="enable-background:new 0 0 256 256;" xml:space="preserve">
<style type="text/css">
	.st0{display:none;}
	.st1{display:inline;fill:#FF00FF;}
	.st2{display:none;fill:none;stroke:#00FFFF;stroke-miterlimit:10;}
	.st3{display:inline;fill:#00FF00;}
</style>
<g class="st0">
	<path class="st1" d="M255,25v206H1V25H255 M256,24H0v208h256V24L256,24z"/>
</g>
<rect x="12.2" y="12.2" class="st2" width="231.6" height="231.6"/>
<g class="st0">
	<path class="st3" d="M231,1v254H25V1H231 M232,0H24v256h208V0L232,0z"/>
</g>
<g>
	<path d="M141.4,5.6c-12,0-23.8,2-35,6c-2,0.7-3.6,2.2-4.5,4.1c-0.7,1.4-0.9,3-0.7,4.5c0,0,0,0,0,0c0,0.2,0.1,0.4,0.1,0.6
		c0,0.1,0,0.2,0,0.2c0,0.1,0,0.1,0,0.2c0.1,0.2,0.1,0.4,0.2,0.6l32.4,91.4c1.1,3.2,4.1,5.3,7.5,5.3h97c0,0,0,0,0,0s0,0,0,0
		c4.4,0,7.9-3.6,7.9-7.9C246.4,52.7,199.3,5.6,141.4,5.6z M230.1,102.6H147l-27.7-78.3c7.2-1.8,14.6-2.8,22.1-2.8
		C187.8,21.5,226.1,57.2,230.1,102.6z"/>
	<path d="M214.8,130.1l-91.1,2.6L93.1,44c-0.7-2-2.2-3.7-4.1-4.6c-1.9-0.9-4.1-1-6.1-0.3c-41.8,14.8-69.9,54.6-69.9,98.9
		C13.1,195.9,60.1,243,118,243c57.9,0,104.9-47.1,104.9-104.9c0-2.1-0.9-4.2-2.4-5.7C219,130.9,216.9,130.1,214.8,130.1z
		 M110.1,226.8c-45.4-4-81.1-42.3-81.1-88.7c0-35,20.2-66.4,51.9-80.9l29.2,85V226.8z M125.9,226.7v-78.2l80.7-2.3
		C202.7,189.2,168.5,223,125.9,226.7z"/>
</g>
</svg>
