<?xml version="1.0" encoding="utf-8"?>
<!-- Generator: Adobe Illustrator 26.0.1, SVG Export Plug-In . SVG Version: 6.00 Build 0)  -->
<svg version="1.1" id="Livello_1" xmlns="http://www.w3.org/2000/svg" xmlns:xlink="http://www.w3.org/1999/xlink" x="0px" y="0px"
	 viewBox="0 0 256 256" style="enable-background:new 0 0 256 256;" xml:space="preserve">
<style type="text/css">
	.st0{display:none;}
	.st1{display:inline;fill:#FF00FF;}
	.st2{display:none;fill:none;stroke:#00FFFF;stroke-miterlimit:10;}
	.st3{display:inline;fill:#00FF00;}
</style>
<g class="st0">
	<path class="st1" d="M255,25v206H1V25H255 M256,24H0v208h256V24L256,24z"/>
</g>
<rect x="12.2" y="12.2" class="st2" width="231.6" height="231.6"/>
<g class="st0">
	<path class="st3" d="M231,1v254H25V1H231 M232,0H24v256h208V0L232,0z"/>
</g>
<g>
	<path d="M237.9,158.7c0.5,0.5,1.1,1,1.6,1.5c3-10.2,4.6-21.1,4.6-32.3c0-64.1-52.1-116.2-116.2-116.2C63.8,11.8,11.7,63.9,11.7,128
		s52.1,116.2,116.2,116.2c11.3,0,22.2-1.6,32.5-4.6c10.1,10.2,24.2,16.5,39.7,16.5c30.9,0,56-25.1,56-56
		C256,183.7,249,169,237.9,158.7z M27.7,128c0-55.2,44.9-100.2,100.2-100.2S228,72.8,228,128c0,7.6-0.9,15-2.5,22.2
		c-7.7-3.9-16.3-6.2-25.5-6.2c-9.5,0-18.5,2.4-26.4,6.6c0,0,0,0,0,0c-4.4-2.5-9-4.7-13.9-6.5c13.9-10,23-26.3,23-44.7
		c0-30.3-24.6-54.9-54.9-54.9S72.9,69.1,72.9,99.4c0,18.4,9.1,34.7,23.1,44.7c-20.6,7.6-38.3,22.6-49,42.8
		C34.8,170.4,27.7,150,27.7,128z M236.8,157.8c-0.3-0.2-0.5-0.4-0.8-0.7C236.3,157.4,236.6,157.6,236.8,157.8z M234.9,156.2
		c-0.2-0.2-0.4-0.3-0.6-0.5C234.5,155.9,234.7,156.1,234.9,156.2z M233,154.7c-0.1-0.1-0.2-0.1-0.3-0.2
		C232.8,154.6,232.9,154.7,233,154.7z M172.2,151.4c-0.2,0.1-0.5,0.3-0.7,0.4C171.7,151.7,172,151.5,172.2,151.4z M170.1,152.6
		c-0.2,0.1-0.4,0.3-0.7,0.4C169.7,152.9,169.9,152.8,170.1,152.6z M168.1,154c-0.2,0.1-0.3,0.2-0.5,0.3
		C167.8,154.2,167.9,154.1,168.1,154z M127.8,138.4c-21.5,0-38.9-17.5-38.9-38.9c0-21.5,17.5-38.9,38.9-38.9
		c21.5,0,38.9,17.5,38.9,38.9C166.8,120.9,149.3,138.4,127.8,138.4z M58.4,200.1c15.6-36.3,57.1-54.8,94.8-41.4
		c2.2,0.8,4.3,1.7,6.4,2.6C149.9,171.4,144,185,144,200c0,9.2,2.3,17.9,6.2,25.6c-7.2,1.6-14.7,2.5-22.4,2.5
		C100.9,228.1,76.4,217.4,58.4,200.1z M158.7,237.9c0.5,0.6,1,1.1,1.6,1.7C159.8,239,159.3,238.4,158.7,237.9z M154.6,232.7
		c0.1,0.1,0.1,0.2,0.2,0.3C154.7,232.9,154.6,232.8,154.6,232.7z M155.7,234.3c0.2,0.2,0.4,0.5,0.6,0.7
		C156.1,234.8,155.9,234.5,155.7,234.3z M157.2,236.1c0.3,0.3,0.5,0.6,0.8,0.9C157.7,236.7,157.4,236.4,157.2,236.1z M232.2,202.2
		c-4.1,4.1-9.5,6.3-15.2,6.3c-2.2,0-4.5-0.4-6.6-1l-1.5,1.5v9.8h-7.2v7.2h-7.2v7.2l-23.7,0l0-13.9l25.7-25.7
		c-2.5-7.6-0.5-16,5.3-21.8c4.1-4.1,9.5-6.3,15.2-6.3c5.7,0,11.1,2.2,15.2,6.3C240.6,180.2,240.6,193.8,232.2,202.2z"/>
	<path d="M217,174.4c-3.4,0-6.5,1.3-8.9,3.7c-3.9,3.9-4.8,9.7-2.4,14.6l1.4,2.9L179.7,223l0,1.4l5.9,0v-7.2h7.2v-7.2h7.2v-4.6
		l8.5-8.5l2.9,1.4c1.7,0.9,3.7,1.3,5.7,1.3c3.4,0,6.5-1.3,8.9-3.7c4.9-4.9,4.9-12.9,0-17.9C223.5,175.7,220.4,174.4,217,174.4z"/>
</g>
</svg>
