<?xml version="1.0" encoding="utf-8"?>
<!-- Generator: Adobe Illustrator 26.0.1, SVG Export Plug-In . SVG Version: 6.00 Build 0)  -->
<svg version="1.1" id="Livello_1" xmlns="http://www.w3.org/2000/svg" xmlns:xlink="http://www.w3.org/1999/xlink" x="0px" y="0px"
	 viewBox="0 0 256 256" style="enable-background:new 0 0 256 256;" xml:space="preserve">
<style type="text/css">
	.st0{display:none;}
	.st1{display:inline;fill:#FF00FF;}
	.st2{display:none;fill:none;stroke:#00FFFF;stroke-miterlimit:10;}
	.st3{display:inline;fill:#00FF00;}
</style>
<g class="st0">
	<path class="st1" d="M254.6,24.9v206H0.6v-206H254.6 M255.6,23.9h-256v208h256V23.9L255.6,23.9z"/>
</g>
<rect x="11.8" y="12.1" class="st2" width="231.6" height="231.6"/>
<g class="st0">
	<path class="st3" d="M230.6,0.9v254h-206V0.9H230.6 M231.6-0.1h-208v256h208V-0.1L231.6-0.1z"/>
</g>
<g>
	<path d="M105.5,121.5c-1.6,1.9-2.3,4.7-2.3,8.1c0,3.6,0.8,6.4,2.3,8.2c1.5,1.8,3.7,2.8,6.7,2.8c2.9,0,5-0.9,6.4-2.8
		c1.4-1.9,2.1-4.7,2.1-8.4c0-3.6-0.7-6.2-2.2-8c-1.4-1.8-3.6-2.7-6.5-2.7C109.2,118.6,107.1,119.6,105.5,121.5z"/>
	<path d="M127.6,9.4C62.3,9.4,9.1,62.6,9.1,127.9s53.2,118.5,118.5,118.5s118.5-53.2,118.5-118.5S192.9,9.4,127.6,9.4z M220.2,84
		h-33c-4.3-20.5-11.5-38-20.8-51C190,42.7,209.3,61,220.2,84z M183.7,120.9c-1.1-1.5-2.7-2.2-4.8-2.2c-2.1,0-3.8,0.8-5.1,2.4
		c-1.4,1.6-2,3.6-2,6.1v21H161v-36.8h10.7v5.9h0.1c1.4-2.3,3-4,5-5.1c2-1.1,4.3-1.7,6.9-1.7c4.1,0,7.1,1.3,9.2,3.8s3.1,6.3,3.1,11.3
		V148h-10.7v-20.5C185.3,124.6,184.8,122.3,183.7,120.9z M127.6,25.4c17.1,0,35,22.3,43.3,58.6H84.3
		C92.6,47.7,110.5,25.4,127.6,25.4z M149.7,104.7c-1.2,1.1-2.7,1.7-4.6,1.7c-1.9,0-3.4-0.6-4.6-1.7c-1.2-1.1-1.8-2.5-1.8-4.2
		c0-1.8,0.6-3.2,1.8-4.3c1.2-1.1,2.7-1.6,4.6-1.6c1.9,0,3.4,0.5,4.6,1.6c1.2,1.1,1.8,2.5,1.8,4.3
		C151.5,102.1,150.9,103.6,149.7,104.7z M150.4,111.3V148h-10.7v-36.8H150.4z M131.6,129.2c0,6.1-1.8,10.9-5.3,14.4
		s-8.4,5.3-14.6,5.3c-6.1,0-10.8-1.7-14.3-5.2c-3.5-3.5-5.2-8.1-5.2-14c0-6.1,1.8-10.9,5.4-14.3c3.6-3.4,8.5-5.2,14.6-5.2
		c6,0,10.8,1.7,14.2,5.1S131.6,123.5,131.6,129.2z M83.8,150.9c0,4.3-1.2,7.7-3.7,10.2c-2.5,2.5-5.9,3.8-10.3,3.8
		c-1.3,0-2.6-0.1-3.9-0.3c-1.2-0.2-2.4-0.5-3.5-0.9l2.3-8c0.5,0.2,1.1,0.4,1.7,0.5c0.6,0.1,1.3,0.2,2,0.2c1.5,0,2.6-0.5,3.4-1.4
		c0.8-0.9,1.2-2.2,1.2-3.9v-40h10.7V150.9z M58,148.9c-1.8,0-3.4-0.6-4.6-1.7c-1.2-1.1-1.8-2.5-1.8-4.2c0-1.7,0.6-3.1,1.8-4.2
		c1.2-1.1,2.7-1.6,4.5-1.6c1.8,0,3.4,0.5,4.6,1.6s1.8,2.5,1.8,4.2c0,1.7-0.6,3.1-1.8,4.2C61.3,148.4,59.8,148.9,58,148.9z M83,104.6
		c-1.2,1.1-2.7,1.7-4.5,1.7c-1.8,0-3.4-0.6-4.6-1.7c-1.2-1.1-1.8-2.5-1.8-4.2c0-1.7,0.6-3.1,1.8-4.2c1.2-1.1,2.7-1.7,4.6-1.7
		c1.8,0,3.3,0.6,4.5,1.7c1.2,1.1,1.8,2.5,1.8,4.2C84.8,102.1,84.2,103.5,83,104.6z M88.8,33C79.5,46,72.3,63.5,68,84H35
		C45.9,61,65.2,42.7,88.8,33z M35.1,172H68c4.3,20.4,11.5,37.9,20.8,50.8C65.2,213.1,46,194.9,35.1,172z M127.6,230.4
		c-17,0-35-22.3-43.3-58.4h86.5C162.6,208.1,144.6,230.4,127.6,230.4z M166.4,222.8c9.3-12.9,16.5-30.4,20.8-50.8h32.9
		C209.2,194.9,190,213.1,166.4,222.8z"/>
</g>
</svg>
