<?xml version="1.0" encoding="utf-8"?>
<!-- Generator: Adobe Illustrator 26.0.1, SVG Export Plug-In . SVG Version: 6.00 Build 0)  -->
<svg version="1.1" id="Livello_1" xmlns="http://www.w3.org/2000/svg" xmlns:xlink="http://www.w3.org/1999/xlink" x="0px" y="0px"
	 viewBox="0 0 256 256" style="enable-background:new 0 0 256 256;" xml:space="preserve">
<style type="text/css">
	.st0{display:none;}
	.st1{display:inline;fill:#FF00FF;}
	.st2{display:none;fill:none;stroke:#00FFFF;stroke-miterlimit:10;}
	.st3{display:inline;fill:#00FF00;}
</style>
<g class="st0">
	<path class="st1" d="M255,25v206H1V25H255 M256,24H0v208h256V24L256,24z"/>
</g>
<rect x="12.2" y="12.2" class="st2" width="231.6" height="231.6"/>
<g class="st0">
	<path class="st3" d="M231,1v254H25V1H231 M232,0H24v256h208V0L232,0z"/>
</g>
<g>
	<path d="M184.9,44.9c-7,0-13.6,2.7-18.6,7.7c-10.2,10.2-10.2,26.9,0,37.1c5,5,11.5,7.7,18.6,7.7s13.6-2.7,18.6-7.7
		c10.2-10.2,10.2-26.9,0-37.1C198.5,47.7,191.9,44.9,184.9,44.9z M193.3,79.6c-2.2,2.2-5.2,3.5-8.4,3.5s-6.2-1.2-8.4-3.5
		c-4.6-4.6-4.6-12.2,0-16.8c2.2-2.2,5.2-3.5,8.4-3.5s6.2,1.2,8.4,3.5C197.9,67.4,197.9,75,193.3,79.6z"/>
	<path d="M223.5,32.6C210.2,19.3,192.6,12,173.8,12c-18.8,0-36.4,7.3-49.7,20.6c-20.2,20.2-26.1,50.3-15.3,76.3l-96.5,96.5
		l-0.1,38.4l69.1,0.1v-26.6H108v-26.6h26.6v-30.8l12.5-12.5c8.4,3.4,17.5,5.2,26.7,5.2c18.8,0,36.4-7.3,49.7-20.6
		C250.9,104.5,250.9,60,223.5,32.6z M213.4,121.8c-10.6,10.6-24.6,16.4-39.5,16.4c-8.7,0-17.3-2-25-5.9l-4.6-2.3l-23.9,23.9v22.4
		H93.7v26.6H67v26.6l-40.4,0l0-18.1l99.5-99.5l-2.3-4.6c-10.8-21.6-6.6-47.5,10.5-64.6c10.6-10.6,24.6-16.4,39.5-16.4
		c14.9,0,29,5.8,39.5,16.4C235.2,64.5,235.2,100,213.4,121.8z"/>
</g>
</svg>
